<svg xmlns="http://www.w3.org/2000/svg" width="256" height="256" viewBox="0 0 256 256">
  <rect width="256" height="256" rx="32" fill="#3178C6"/>
  <path fill="#FFFFFF" d="M115.6 110.7H86.4v-18h76.1v18h-29.2V192h-17.7v-81.3zm91 81.6c-6.6 5.7-16.8 8.9-30.5 8.9-13.9 0-25.1-3.9-33.6-11.8l10.1-14.3c6.8 6 14.3 9 22.4 9 8 0 12.8-3 12.8-8.2 0-5.5-4.6-7.6-16.4-11.6-14.7-5.1-27.4-11.6-27.4-29.4 0-16.8 13.6-28.7 33.2-28.7 12.2 0 22.8 3.4 31 10.1l-9.1 14.8c-6.4-4.9-13-7.4-20-7.4-6.8 0-10.6 2.9-10.6 7.7 0 5.2 4.1 7.1 17.8 11.9 14.8 5.3 26.1 12.2 26.1 29 0 9.1-3.3 16.3-9.8 21z"/>
</svg>
